<svg width="44" height="44" fill="none" xmlns="http://www.w3.org/2000/svg"><path d="M39 22a17 17 0 1 0-34 0 17 17 0 0 0 34 0z" fill="#5C40F4"/><path d="M11.97 17.44l-1.12 8.17a3.93 3.93 0 0 0 4 4.58h12.61a5.14 5.14 0 0 0 5.1-5.84l-1.2-8.67a4 4 0 0 0-4.4-3.41l-11.02 1.28a4.54 4.54 0 0 0-3.97 3.9z" fill="#7373FF"/><path opacity=".3" d="M28.11 15.99l-8.7.78a3.58 3.58 0 0 0-3.26 3.22l-.65 6.6a3.22 3.22 0 0 0 3.26 3.6h8.89a4.98 4.98 0 0 0 4.93-5.65l-.77-5.6a3.43 3.43 0 0 0-3.7-2.95z" fill="#fff"/><path d="M29.64 19.45l-6.95.48a2.67 2.67 0 0 0-2.48 2.5l-.33 5.16a2.42 2.42 0 0 0 2.44 2.6h5.73a4.5 4.5 0 0 0 4.58-5.25l-.47-3.44a2.38 2.38 0 0 0-2.52-2.05z" fill="#F7F7FF"/></svg>