<svg width="44" height="44" fill="none" xmlns="http://www.w3.org/2000/svg"><rect x="6" y="6" width="32" height="32" rx="9" fill="url(#paint0_linear)"/><path fill-rule="evenodd" clip-rule="evenodd" d="M21.46 23.48a1.57 1.57 0 1 0 1.08-2.96 1.57 1.57 0 0 0-1.08 2.96zm-6.58 4.29a3.14 3.14 0 1 0 2.15-5.9 3.14 3.14 0 0 0-2.15 5.9zm8.86 3.22a3.14 3.14 0 1 0 2.15-5.9 3.14 3.14 0 0 0-2.15 5.9zm3.23-8.85a3.14 3.14 0 1 0 2.15-5.9 3.14 3.14 0 0 0-2.15 5.9zM18.1 18.9a3.14 3.14 0 1 0 2.15-5.9 3.14 3.14 0 0 0-2.15 5.9zm-.4 14.9a12.57 12.57 0 1 1 8.59-23.62 12.57 12.57 0 0 1-8.6 23.62z" fill="#fff"/><defs><linearGradient id="paint0_linear" x1="16.18" y1="37.97" x2="27.84" y2="5.97" gradientUnits="userSpaceOnUse"><stop stop-color="#F60"/><stop offset="1" stop-color="#F90"/></linearGradient></defs></svg>